<!-- Created with Inkscape (http://www.inkscape.org/) -->
<svg id="svg2" xmlns:rdf="http://www.w3.org/1999/02/22-rdf-syntax-ns#" xmlns="http://www.w3.org/2000/svg" viewBox="0 0 2097.6 2068" version="1.1" xmlns:cc="http://creativecommons.org/ns#" xmlns:dc="http://purl.org/dc/elements/1.1/">
<metadata id="metadata7">
<rdf:RDF>
<cc:Work rdf:about="">
<dc:format>image/svg+xml</dc:format>
<dc:type rdf:resource="http://purl.org/dc/dcmitype/StillImage"/>
<dc:title/>
</cc:Work>
</rdf:RDF>
</metadata>
<g id="TownsMap" transform="translate(1144.5788,303.76759)">
<path id="Hamont-Achel" style="enable-background:accumulate;fill-rule:nonzero;color:#000000;fill:#666666;" d="m-114.9-227.25,81.065-76.519,49.624,0.88388,109.22,125.13,20.329,124.12-75.635,28.663-60.609-102.03-60.483,16.541z"/>
<path id="Neerpelt" style="enable-background:accumulate;fill-rule:nonzero;color:#000000;fill:#666666;" d="m-216.49-136.33,34.389-49.245,59.516-36.135,68.15,122.02,58.901-16.413,56.329,94.02-40.252,0.47459-53.519,87.613-90.387,16.157,7.6484-117.77z"/>
<path id="Bocholt" style="enable-background:accumulate;fill-rule:nonzero;color:#000000;fill:#666666;" d="m24.244-13.854,48.992-2.2728,76.014-30.178,176.65,75.962,33.587,45.635-170.59,76.014-0.25254,53.033-72.172,51.88l-25.199-36.02,29.629-16.92-29.316-88.48-115.82-48.433z"/>
<path id="Overpelt" style="enable-background:accumulate;fill-rule:nonzero;color:#000000;fill:#666666;" d="m-221.51-128.79,95.885,95.714-11.258,175.36-91.615-4.8214-27.865-39.821-83.929,13.781-40.861-18.75z"/>
<path id="Peer" style="enable-background:accumulate;fill-rule:nonzero;color:#000000;fill:#666666;" d="m-125.51,89.939,95.901-17.173,112.82,46.467,27.969,79.297-80.118,48.487,10.102,43.437-93.25,64.523,25.443,144.58-58.147,31.188l-152.34-221.1,106.57-139.91z"/>
<path id="Bree" style="enable-background:accumulate;fill-rule:nonzero;color:#000000;fill:#666666;" d="m196.61,157.29,169-74.878,126.32,120.71-1.8434,58.841-114.35,94.449-42.931-0.0671-32.931-31.567-129.91,9.849-48.803-71.498,74.846-54.058z"/>
<path id="Kinrooi" style="enable-background:accumulate;fill-rule:nonzero;color:#000000;fill:#666666;" d="m373.93,78.612,15.28-6.1502,97.607,29.71,77.532-23.665,65.505,42.749-20.61,16.99,22.826,49.82,84.776-17.264,11.54-25.345,72.918,69.107-28.151,41.666-68.238,53.682-206.34-48.088,1.0943-62.226z"/>
<path id="Maaseik" style="enable-background:accumulate;fill-rule:nonzero;color:#000000;fill:#666666;" d="m382.04,360.63,112.93-91.685,206.9,47.23,55.282,39.826-5.5558,26.941-75.635,5.8539,10.228,55.983-26.011,62.17-18.865-7.5762,4.1156-48.866-88.641-15.622-110.99,61.907-36.206-23.023-45.424,130.27-45.194,38.586-57.068-43.026,121.49-181.22z"/>
<path id="Lommel" style="enable-background:accumulate;fill-rule:nonzero;color:#000000;fill:#666666;" d="m-528.11-192.33,178.09,4.5457,20.254-35.86,139.15,36.295-258.09,359.8-55.105-0.25254-28.841-85.105-97.48-126.2,49.245-139.24z"/>
<path id="Hechtel-Eksel" style="enable-background:accumulate;fill-rule:nonzero;color:#000000;fill:#666666;" d="m-445.28,180.42,58.135-81.065,44.245,19.698,82.58-12.192,26.643,39.866,94.986,2.2009,0.0316,19.121-110.04,140.27,42.375,60.609-28.083,33.588-147.99-7.5058-129.43-180.28,7.0079-34.454z"/>
<path id="Meeuwen-Gruitrode" style="enable-background:accumulate;fill-rule:nonzero;color:#000000;fill:#666666;" d="m42.628,249.61,42.225-25.759,80.611,118.44,129.55-10.929,32.83,33.012,44.395,0.75762,2.4741,48.992-71.658,108.8-67.617-28.835-48.172,26.976-61.556-3.3285-63.513,95.747-106.16-22.278-35.45-52.582,62.03-33.894-26.059-145.24,94.552-65.042z"/>
<path id="Leopoldsburg" style="enable-background:accumulate;fill-rule:nonzero;color:#000000;fill:#666666;" d="m-586.43,257.54,69.643-36.429,84.643,120.18-127.5,45.536-95.357-20.714z"/>
<path id="Ham" style="enable-background:accumulate;fill-rule:nonzero;color:#000000;fill:#666666;" d="m-647.05,278.26,10.982-36.786,42.5,14.643-76.071,118.04,31.24,4.2772-59.421,73.473-83.74-10.891-61.161,11.3-45.222-24.766,82.232-109.64,93.214-2.3214z"/>
<path id="Beringen" style="enable-background:accumulate;fill-rule:nonzero;color:#000000;fill:#666666;" d="m-628.93,380.76,70,14.286,131.79-45,40,52.679,56.429,2.6786-13.929,75.714-135,70.714-53.214-10.536-61.161,78.08-49.375-46.205-58.449,81.323-45.592-20.106-87.612-71.641,25.96-24.855,72.388-22.712z"/>
<path id="Opglabbeek" style="enable-background:accumulate;fill-rule:nonzero;color:#000000;fill:#666666;" d="m190.87,527.91,47.023-24.749,61.166,25.001-80.055,120.32-162.18,2.5254,10.303-31.82,61.367-93.621z"/>
<path id="Dilsen-Stokkem" style="enable-background:accumulate;fill-rule:nonzero;color:#000000;fill:#666666;" d="m446.07,505.04,112.5-60.714,78.214,12.5-5.7143,44.554-32.5,105.98,30.357,30.625-10.536,49.621-120.54,27.478-16.25-16.451-130.62,31.417-58.482-19.297,29.286-59.286,50-40.357,41.786-125.18z"/>
<path id="As" style="enable-background:accumulate;fill-rule:nonzero;color:#000000;fill:#666666;" d="m223.57,655.76,34.286-48.929,55.357,42.857-28.929,59.107-51.429,0.89286,0.35714,92.857l-140.36-144.83z"/>
<path id="Houthalen-Helchteren" style="enable-background:accumulate;fill-rule:nonzero;color:#000000;fill:#666666;" d="m-321.79,406.47,90.357,5,29.643-33.929,149.46,219.2,109.46,25.625-7.8571,30.536-100.71,62.5-266.43-28.929-19.286-205.54z"/>
<path id="Heusden-Zolder" style="enable-background:accumulate;fill-rule:nonzero;color:#000000;fill:#666666;" d="m-527.86,549.68,51.071,10.357,130.36-68.571,21.071,197.68-98.214,41.25,22.5,61.071l-138.93,10.36-29.64-84.11,50.89-30.09-68.48-62.72z"/>
<path id="Lummen" style="enable-background:accumulate;fill-rule:nonzero;color:#000000;fill:#666666;" d="m-698.21,665.4,56.071-79.643,110,100.71-46.317,26.864,31.183,91.864-60.603,43.292-80.96-28.85-120.62,47.455-44.196-3.2589,70.446-66.116-42.857-65.536-2.5-60.357,34.643,2.1428,41.786-34.464z"/>
<path id="Zonhoven" style="enable-background:accumulate;fill-rule:nonzero;color:#000000;fill:#666666;" d="m-413.57,733.97,93.929-37.857,255,25.357-82.143,51.964-16.786,39.464-30.714,16.071-41.071-39.286-102.5,55.714-55.357-55.179z"/>
<path id="Genk" style="enable-background:accumulate;fill-rule:nonzero;color:#000000;fill:#666666;" d="M51.429,659.33,82.143,658.97,231.43,813.26,167.86,854.86,140.27,828.57,116.25,960.84,81.161,1015.3,15.759,1015-136.94,897.86-172.5,929.68l-57.857-73.929,72.5-35.714,13.571-39.821z"/>
<path id="Tessenderlo" style="enable-background:accumulate;fill-rule:nonzero;color:#000000;fill:#666666;" d="m-844.29,459.73,62.933-10.607,75.055,11.617-34.345,46.144-73.236,24.426-30.103,28.284-85.882-7.0711-2.5444,82.833-32.344,29.8-49.629-25.38-38.517,18.056-33.466-54.674-58.215,8.46,63.564-85.358,2.4495-56.063,54.472,4.5457,129.8-40.588z"/>
<path id="Maasmechelen" style="enable-background:accumulate;fill-rule:nonzero;color:#000000;fill:#666666;" d="m479.01,708.22,15.961,16.668,119.5-27.779-18.688,46.649-58.084,55.235-26.592,71.089,81.494-3.6618,1.1867,21.087-36.574,38.859-33.543,78.76-33.439-0.2683,27.17-41.685-122.44-23.265-71.544-34.977-80.636,34.219-0.3285-220.84,42.603,0.37881,66.67,20.021z"/>
<path id="Zutendaal" style="enable-background:accumulate;fill-rule:nonzero;color:#000000;fill:#666666;" d="m146.67,847.12,20.507,16.668,64.954-42.931,1.5152,128.47,38.891,121.4-35.659,3.5355-59.398-43.436-70.711,7.8991-16.794-20.122,34.219-54.468z"/>
<path id="Lanaken" style="enable-background:accumulate;fill-rule:nonzero;color:#000000;fill:#666666;" d="m321.43,911.26,68.489,33.84,113.95,24.244-31.315,42.609,48.487,0.6873-7.147,11.617-44.018,0.5051-43.007,94.449-69.972,35.482-33.101,76.898,16.347,58.999-35.676-7.6708,9.276-47.067-70.033-51.668-13.465-68.335-22.556-27.929,3.708-22.373,22.457,17.804,49.194-5.5558-40.911-130.49z"/>
<path id="Halen" style="enable-background:accumulate;fill-rule:nonzero;color:#000000;fill:#666666;" d="m-887.14,771.47,55-35.357,36.786,58.929-71.786,73.393,57.5,128.04-76.429,36.786-31.25-36.696-40.536,11.161-53.036-71.339,96.964-104.2-11.429-59.464z"/>
<path id="Herk-de-Stad" style="enable-background:accumulate;fill-rule:nonzero;color:#000000;fill:#666666;" d="m-813.57,874.68,128.21-47.143,74.286,27.857,19.643,26.607-39.107,53.259,4.1071,37.188,37.321,25.759-6.9643,36.116-71.518,38.571-9.0179-33.929-92.679-17.5l-33.21-28.24-54.29-120.18z"/>
<path id="Hasselt" style="enable-background:accumulate;fill-rule:nonzero;color:#000000;fill:#666666;" d="m-396.54,798,57.5,59.286,103.93-56.071,32.589,32.455-39.911,18.884,54.821,72.768-78.214,50.982,23.929,44.196-36.518,27.768,14.196,47.411-7.2322,35.982-34.375,35.268-19.062-59.286-38.348,1.7857-41.562-39.643-38.705,1.0715-36.92-41.429-70.848,52.143-34.353-8.3929-1.9978-39.911,8.3594-41.339-39.062-25-3.9286-32.366,41.429-52.723-21.071-28.08,58.571-43.08z"/>
<path id="Diepenbeek" style="enable-background:accumulate;fill-rule:nonzero;color:#000000;fill:#666666;" d="m-268.5,1054.2,37.83-34.156-23.789-41.479,73.691-48.298,8.0309,11.554,35.659-33.335,111.12,85.54-66.039,49.967-4.4194,90.626-75.308,13.637-39.195-26.264-51.518,7.3939,5.8084-35.825z"/>
<path id="Bilzen" style="enable-background:accumulate;fill-rule:nonzero;color:#000000;fill:#666666;" d="m82.5,1022.9,20.357,24.643,71.429-7.1429,30.357,20.178-6.6071,28.08,25.536,32.009,13.393,66.652,66.964,49.866-6.1607,43.304-129.38-3.8393-16.875,70.089-93.661-16.696-2.5-69.643-100.04-143.06-19.129,13.471-23.058-17.958,2.0536-64.688,65.982-49.33,29.554,24.241z"/>
<path id="Hoeselt" style="enable-background:accumulate;fill-rule:nonzero;color:#000000;fill:#666666;" d="m-86.429,1123.6,21.786,17.857,17.5-11.071,95,128.39,1.4286,70.536-139.64,2.1429-40.357,21.786-1.25-19.196,44.464-47.054-26.161-24.063,26.696-30.491z"/>
<path id="Kortessem" style="enable-background:accumulate;fill-rule:nonzero;color:#000000;fill:#666666;" d="m-212.86,1131.1,38.571,26.786,78.214-15.714,0.35714,86.964-29.821,35.134,27.321,23.348-43.393,42.991,1.5179,25.96-41.205,17.98,0.58036-59.163-71.429-63.572-50.357-73.928,36.429-39.821z"/>
<path id="Riemst" style="enable-background:accumulate;fill-rule:nonzero;color:#000000;fill:#666666;" d="m175.71,1285,125.71,3.9286,43.571,10.714,24.286,30.536,77.5,40.893-14.33,27.321-60.402-8.3928-67.946,80.357-37.188-5.1787,0.3125,26.964-116.27,43.661-38.672-38.705,7.7567-51.562-53.616-44.464-8.2143-63.214,100,19.464z"/>
<path id="Tongeren" style="enable-background:accumulate;fill-rule:nonzero;color:#000000;fill:#666666;" d="m50.357,1339.3,8.9286,66.429,51.786,45-10,47.321,40.505,41.78-49.299,5.6219-49.391,86.939-58.031,31.474-33.534-40.752-28.736,65.566-38.838-6.4069,0.30567-44.288-26.968-3.629-32.101,35.982-27.305-33.896-11.947-37.441,27.751-36.309-20.536-54.725,28.482-9.0252-4.6429-113.57,95-46.607z"/>
<path id="Nieuwerkerken" style="enable-background:accumulate;fill-rule:nonzero;color:#000000;fill:#666666;" d="m-716.07,1218.3-45.357-3.2143,12.143-55.714,32.5,0.7143,49.643-78.571,71.071-37.5,1.7857,36.071,81.071,19.821,5.3572,18.393-44.286,56.786-66.429-22.143-40,67.321-20.536-24.554z"/>
<path id="Alken" style="enable-background:accumulate;fill-rule:nonzero;color:#000000;fill:#666666;" d="m-481.07,1040.8,35,36.429,38.571,0.3571,37.857,40.536,38.214-2.1875,18.214,58.17-103.57,43.839-110-5.3572-20.179-31.428,46.964-57.857-5.1786-30.446-35.893-8.3035z"/>
<path id="Wellen" style="enable-background:accumulate;fill-rule:nonzero;color:#000000;fill:#666666;" d="m-519.77,1222.4,101.82,3.7881,109.15-43.942,50.508,72.913-55.558,73.671-46.013-5.8084-30.608,28.789-26.264-4.9805z"/>
<path id="Sint-Truiden" style="enable-background:accumulate;fill-rule:nonzero;color:#000000;fill:#666666;" d="m-762.32,1223.8,47.857,5,32.5-22.5,23.75,32.321,43.393-78.75,60.714,23.929,21.786,38.75,77.5,91.607-86.473,78.348,35.134,51.027,41.384,3.1696,6.5625,30.67-40.58,31.562,11.838,75.161-56.019-5.196-29.181-53.606-40.684-8.284-48.005,23.144-176.4-10.784-18.27-37.958,24.944-51.886,75.123-51.708-36.295-30.223z"/>
<path id="Borgloon" style="enable-background:accumulate;fill-rule:nonzero;color:#000000;fill:#666666;" d="m-309.16,1336.8,56.115-75.004,63.186,56.316,1.5152,174.94-22.728,7.2533-66.974-41.416-40.962,38.638-83.906-30.54-28.679-24.618-69.772-6.7532-29.365-42.109,80.165-72.853,27.89,33.718,33.019,6.3311,34.03-29.782z"/>
<path id="Heers" style="enable-background:accumulate;fill-rule:nonzero;color:#000000;fill:#666666;" d="m-276.08,1469.4,61.923,38.386,14.951,56.063-35.355,49.175-32.83-16.99-137.18,88.893-57.883-21.718-59.473,33.186-27.148-27.423,7.1973-81.466,63.261,4.3966-12.501-82.476,42.048-28.938-7.1658-31.731,22.634,2.3618,21.529,20.634,96.091,32.681z"/>
<path id="Gingelom" style="enable-background:accumulate;fill-rule:nonzero;color:#000000;fill:#666666;" d="m-839.29,1536.5,180.71,12.143,44.643-22.5,37.411,6.4732,26.339,49.33-6.1607,83.259-33.772,31.35-120.56-21.15,18.371,43.85-21.708,44.961-65.993-6.4676-45-35.536-48.214-4.2857,44.643-65-42.5-59.821z"/>
<path id="Voeren" style="enable-background:accumulate;fill-rule:nonzero;color:#000000;fill:#666666;" d="m640.32,1459.4,17.175,55.265,37.143-1.7857,41.429,45.178,69.286-36.25,12.5,28.214,78.973-42.411,15.045,66.161,41.116,47.589-64.955,89.375-47.455-37.054-53.884,29.375-37.221,3.7723-47.578-90.156-62.656-41.384-45.67,16.518-46.161-28.281-37.768,25.692-69.911-16.451-2.7679-28.594,81.161-14.308,43.661,17.478z"/>
<path id="Herstappe" style="enable-background:accumulate;fill-rule:nonzero;color:#000000;fill:#666666;" d="m-140.36,1642.7,15.357,2.1429,1.0714,36.072-43.929-7.5z"/>
</g>
</svg>
